<?xml version="1.0" encoding="UTF-8"?>
<svg id="Camada_1" data-name="Camada 1" xmlns="http://www.w3.org/2000/svg" xmlns:xlink="http://www.w3.org/1999/xlink" viewBox="0 0 274.13 108.4">
  <defs>
    <style>
      .cls-1 {
        fill: none;
      }

      .cls-2 {
        fill: #df0c20;
      }

      .cls-2, .cls-3 {
        fill-rule: evenodd;
      }

      .cls-4 {
        clip-path: url(#clippath-1);
      }

      .cls-5 {
        clip-path: url(#clippath-2);
      }

      .cls-6 {
        fill: #fff;
      }

      .cls-3 {
        fill: #005089;
      }

      .cls-7 {
        clip-path: url(#clippath);
      }
    </style>
    <clipPath id="clippath">
      <rect class="cls-1" x="61.24" y="82.3" width="10.43" height="11.1"/>
    </clipPath>
    <clipPath id="clippath-1">
      <rect class="cls-1" x="71.67" y="12.25" width="171.1" height="8.94"/>
    </clipPath>
    <clipPath id="clippath-2">
      <rect class="cls-1" x="144.7" y="82.3" width="9.69" height="11.1"/>
    </clipPath>
  </defs>
  <rect class="cls-6" width="274.13" height="108.4" rx="17.54" ry="17.54"/>
  <g id="surface1">
    <path class="cls-2" d="M125.2,35.51l3.36,10.42h-6.91l3.55-10.42ZM105.71,60.8h12.35l2.27-7h9.47l2.47,7h13.18l-11.94-32.34h-16.26l-11.53,32.34Z"/>
    <path class="cls-2" d="M189.09,48.44c0,1.82-1.91,3.71-3.5,3.71h-1.23c-1.08,0-1.77-.25-2.47-.62v8.86c1.79,0,4.15,1.03,6.38,1.03h2.47c5.91,0,10.91-4.04,10.91-9.89v-23.07h-12.56v19.98Z"/>
    <path class="cls-2" d="M147.09,49.47c0,7.28,7.06,11.95,14.41,11.95h3.5c7.88,0,14.41-4.6,14.41-12.36v-20.6h-12.15v20.19c0,2.25-1.23,4.33-3.5,4.33h-1.23c-1.86,0-3.09-2.55-3.09-4.53v-19.98h-12.35v21.01Z"/>
    <path class="cls-2" d="M50.59,35.48l3.51,10.48h-7.09l3.58-10.48ZM30.97,60.8h12.31s1.9-7,1.9-7h10.09l3.09,7h12.56c-3.88-10.82-7.69-21.66-11.94-32.34h-16.27c-4.35,10.62-8.04,21.47-11.73,32.34Z"/>
    <path class="cls-2" d="M83.88,42.68v-7.02c2.46.1,8.24-.65,8.24,3.09,0,4.76-5.12,3.8-8.24,3.93ZM72.15,60.8h12.35v-10.92h3.5c2.31,0,3.32,2.03,3.5,4.12.16,1.98.83,4.79.83,6.79h12.97c-.15-1.88-1.51-7.68-2.01-9.52-1.19-4.31-3.33-3.86-6.01-5.73,4.74-.1,7.41-4.93,7.41-9.06,0-6.27-6.33-8.03-12.76-8.03h-19.77v32.34Z"/>
    <path class="cls-2" d="M222.86,35.67c4.08,0,4.94,5,4.94,9.27,0,4.61-.74,8.65-5.35,8.65-4.33,0-4.53-5.8-4.53-8.83,0-3.41.18-9.09,4.94-9.09ZM204.74,43.91v2.68c0,3.76,2.64,8.85,4.79,10.66,2.47,2.09,7.03,4.17,11.48,4.17h3.3c4.34,0,9.08-1.94,11.48-3.97,2.28-1.92,5-6.6,5-10.66v-4.12c0-4.48-2.56-8.26-4.89-10.56-2.22-2.2-6.99-4.07-11.38-4.07h-5.15c-3.88,0-8.39,2.75-10.45,4.79-2.29,2.27-4.17,6.58-4.17,11.07Z"/>
    <g class="cls-7">
      <path class="cls-3" d="M67,88.61h1.96v2.06c-2.1,0-4.97.22-5.05-3.09,0-3.67,4.37-3.4,6.79-2.68,0-.87.14-1.43.12-1.8-4.52-1.94-9.2-.16-9.2,4.07,0,5.72,5.13,6.16,9.49,5.15v-5.56h-4.12v1.85Z"/>
    </g>
    <path class="cls-3" d="M155.94,85.34c0,3.28,4.53,2.54,4.53,4.51,0,.89-.86.82-1.48.82-.99,0-1.84-.16-2.81-.41l-.34,2.01c1.2.54,2.67.46,3.8.46,2.15,0,3.71-1.16,3.71-3.3,0-3.66-4.73-2.54-4.73-4.12,0-.98,1.08-.82,1.73-.82.83,0,1.57.14,2.38.21v-2.06c-.91-.08-1.72-.21-2.64-.21-1.89,0-4.15.47-4.15,2.91Z"/>
    <path class="cls-3" d="M134.53,88.61c0,2.37,1.4,4.12,3.71,4.12h1.65c1.96,0,3.5-1.74,3.5-3.91v-6.18h-2.68v5.36c0,1.34-.31,2.68-1.64,2.68h-.21c-1.25,0-1.65-1.04-1.65-2.27v-5.77h-2.68v5.97Z"/>
    <path class="cls-3" d="M32.82,84.7h1.65c3.35,0,3.15,5.77.41,5.77h-2.06v-5.77ZM34.06,92.52c7.5,0,7.53-9.89.62-9.89h-4.53v9.89h3.91Z"/>
    <path class="cls-3" d="M45.59,86.78h-1.85v-2.08h1.85c.47.12.82.2.82.82v.2c0,.63-.36.93-.82,1.05ZM47.44,87.58c.86-.46,1.65-.72,1.65-2.06v-.62c0-1.44-1.19-2.26-2.68-2.26h-5.35v9.89h2.68v-3.92h.82c1.11,0,2.03,2.77,2.06,3.92h2.88c-.44-1.89-1.13-3.55-2.06-4.95Z"/>
    <path class="cls-3" d="M77.57,84.79l1.29,3.81h-2.57l1.29-3.81ZM75.64,90.58h3.86l.64,1.93h2.91l-3.73-9.87h-3.48s-3.61,9.87-3.61,9.87h2.76l.64-1.93Z"/>
    <g class="cls-4">
      <path class="cls-3" d="M72.15,20.63h170.68v-8.45H72.15v8.45Z"/>
    </g>
    <path class="cls-3" d="M29.94,76.87h170.68v-8.65H29.94v8.65Z"/>
    <path class="cls-3" d="M50.3,87.53h0c0,.84.12,1.57.35,2.2.04.12.09.24.15.36.06.12.11.22.17.33h0c.23.39.49.72.78,1,.29.28.62.5.98.68.3.15.64.26,1.01.35.07.01.15.03.22.05.47.09.98.13,1.54.13h0c.56,0,1.06-.05,1.52-.15.45-.1.86-.26,1.23-.46s.69-.45.96-.73c.28-.29.51-.61.7-.98.16-.31.29-.65.38-1.03l.05-.23c.1-.47.15-1,.15-1.59h0c0-1.16-.23-2.12-.69-2.89-.09-.15-.19-.29-.29-.43-.11-.14-.22-.27-.34-.39h0c-.37-.37-.8-.66-1.3-.87-.1-.04-.2-.08-.3-.12-.63-.22-1.37-.33-2.19-.33h0c-.81,0-1.53.11-2.15.33-.62.22-1.15.56-1.6,1-.37.37-.66.81-.88,1.3-.04.09-.08.19-.12.3h0c-.22.63-.34,1.35-.34,2.16ZM53.23,88.93c-.1-.39-.15-.85-.15-1.38,0-.77.1-1.39.31-1.86.04-.09.09-.18.14-.26.05-.08.1-.16.17-.23h0c.21-.25.46-.44.74-.56.28-.12.59-.19.93-.19s.68.06.97.18c.29.12.54.3.75.55.21.24.37.55.48.93.1.37.15.8.15,1.3h0c0,.84-.1,1.51-.3,1.99-.04.1-.08.19-.13.27-.05.09-.1.16-.16.23h0c-.17.21-.37.37-.6.49-.05.02-.1.05-.14.06-.28.12-.61.18-.97.18h0c-.51,0-.95-.13-1.32-.38-.07-.05-.14-.1-.2-.16-.07-.06-.13-.13-.19-.19h0c-.21-.25-.37-.57-.47-.97Z"/>
    <path class="cls-3" d="M88.62,86.78h-1.85v-2.08h1.85c.47.12.82.2.82.82v.2c0,.63-.36.93-.82,1.05ZM90.47,87.58c.86-.46,1.65-.72,1.65-2.06v-.62c0-1.44-1.19-2.26-2.68-2.26h-5.35v9.89h2.68v-3.92h.82c1.11,0,2.03,2.77,2.06,3.92h2.88c-.44-1.89-1.13-3.55-2.06-4.95Z"/>
    <path class="cls-3" d="M103.01,84.8l1.29,3.81h-2.57l1.29-3.81ZM101.08,90.59h3.86l.64,1.93h2.91l-3.72-9.87h-3.48s-3.61,9.87-3.61,9.87h2.76l.64-1.93Z"/>
    <path class="cls-3" d="M93.77,92.73h2.88v-10.3h-2.88v10.3Z"/>
    <path class="cls-3" d="M116.83,84.7h1.65c3.35,0,3.15,5.77.41,5.77h-2.06v-5.77ZM118.06,92.52c7.5,0,7.53-9.89.62-9.89h-4.53v9.89h3.91Z"/>
    <path class="cls-3" d="M129.59,86.78h-1.85v-2.08h1.85c.47.12.82.2.82.82v.2c0,.63-.36.93-.82,1.05ZM131.44,87.58c.86-.46,1.65-.72,1.65-2.06v-.62c0-1.44-1.19-2.26-2.68-2.26h-5.35v9.89h2.68v-3.92h.82c1.11,0,2.03,2.77,2.06,3.92h2.88c-.44-1.89-1.13-3.55-2.06-4.95Z"/>
    <g class="cls-5">
      <path class="cls-3" d="M150.18,88.61h1.96v2.06c-2.1,0-4.97.22-5.05-3.09,0-3.67,4.37-3.4,6.79-2.68,0-.87.14-1.43.12-1.8-4.52-1.94-9.2-.16-9.2,4.07,0,5.72,5.13,6.16,9.49,5.15v-5.56h-4.12v1.85Z"/>
    </g>
    <path class="cls-3" d="M188.47,86.78h-1.85v-2.08h1.85c.47.12.82.2.82.82v.2c0,.63-.36.93-.82,1.05ZM190.33,87.58c.86-.46,1.64-.72,1.64-2.06v-.62c0-1.44-1.19-2.26-2.68-2.26h-5.35v9.89h2.68v-3.92h.82c1.11,0,2.03,2.77,2.06,3.92h2.88c-.44-1.89-1.13-3.55-2.06-4.95Z"/>
    <path class="cls-3" d="M164.18,82.64h7.62v1.85h-2.47v8.03h-2.68v-8.03h-2.47v-1.85Z"/>
    <path class="cls-3" d="M196.3,90.67h4.32v1.85h-7v-9.89h7v1.85h-4.32v2.16h3.91v1.85h-3.91v2.16Z"/>
    <path class="cls-3" d="M172.45,87.53h0c0,.84.12,1.57.35,2.2.04.12.09.24.15.36.06.12.11.22.17.33h0c.23.39.49.72.78,1,.29.28.62.5.98.68.3.15.64.26,1.01.35.07.01.15.03.22.05.47.09.98.13,1.54.13h0c.55,0,1.06-.05,1.52-.15.45-.1.86-.26,1.23-.46s.69-.45.96-.73c.28-.29.51-.61.7-.98.16-.31.29-.65.38-1.03.02-.08.03-.15.05-.23.1-.47.15-1,.15-1.59h0c0-1.16-.23-2.12-.69-2.89-.09-.15-.19-.29-.29-.43-.11-.14-.22-.27-.34-.39h0c-.37-.37-.8-.66-1.3-.87-.1-.04-.2-.08-.3-.12-.63-.22-1.37-.33-2.19-.33h0c-.81,0-1.53.11-2.15.33-.62.22-1.15.56-1.6,1-.37.37-.67.81-.88,1.3-.04.09-.08.19-.12.3-.22.63-.34,1.35-.34,2.16ZM175.39,88.93c-.1-.39-.15-.85-.15-1.38,0-.77.1-1.39.31-1.86.04-.09.09-.18.14-.26.05-.08.1-.16.17-.23h0c.21-.25.46-.44.74-.56.28-.12.59-.19.93-.19s.68.06.97.18c.29.12.54.3.75.55.21.24.37.55.48.93.1.37.15.8.15,1.3,0,.84-.1,1.51-.3,1.99-.04.1-.08.19-.13.27-.05.09-.1.16-.16.23h0c-.17.21-.37.37-.6.49-.05.02-.1.05-.14.06-.29.12-.61.18-.97.18h0c-.51,0-.95-.13-1.32-.38-.07-.05-.14-.1-.2-.16-.07-.06-.13-.13-.19-.19h0c-.21-.25-.37-.57-.47-.97Z"/>
  </g>
</svg>